<?xml version="1.0" standalone="no"?>
<!DOCTYPE svg PUBLIC "-//W3C//DTD SVG 20010904//EN"
 "http://www.w3.org/TR/2001/REC-SVG-20010904/DTD/svg10.dtd">
<svg version="1.0" xmlns="http://www.w3.org/2000/svg"
 width="500.000000pt" height="500.000000pt" viewBox="0 0 500.000000 500.000000"
 preserveAspectRatio="xMidYMid meet">

<g transform="translate(0.000000,500.000000) scale(0.100000,-0.100000)"
fill="#000000" stroke="none">
<path d="M0 2500 l0 -2500 2500 0 2500 0 0 2500 0 2500 -2500 0 -2500 0 0
-2500z m1950 1390 l0 -60 -320 0 -320 0 2 -212 3 -213 278 -3 277 -2 0 -55 0
-55 -280 0 -280 0 0 -210 0 -210 320 0 320 0 0 -60 0 -60 -385 0 -385 0 0 600
0 600 385 0 385 0 0 -60z m1508 -1540 c161 -40 246 -140 246 -290 0 -94 -26
-157 -90 -215 l-46 -42 45 -26 c96 -57 150 -156 150 -278 0 -144 -72 -245
-211 -301 -53 -21 -76 -22 -324 -26 l-268 -4 0 603 0 602 228 -6 c125 -3 246
-11 270 -17z"/>
<path d="M3130 2036 l0 -176 123 0 c141 0 184 10 232 51 42 37 59 86 53 151
-6 56 -30 94 -79 123 -29 17 -56 21 -181 23 l-148 4 0 -176z"/>
<path d="M3130 1519 l0 -191 168 4 c146 3 172 6 207 24 106 55 125 206 36 295
-49 50 -91 59 -263 59 l-148 0 0 -191z"/>
</g>
</svg>
